<svg width="230" height="260" viewBox="0 0 230 260" fill="none" xmlns="http://www.w3.org/2000/svg">
<mask id="path-1-inside-1_1_46" fill="white">
<path d="M229.881 27.7835C210.078 16.6495 188.787 8.61565 167.224 4.1405C145.661 -0.33465 124.248 -1.16342 104.207 1.7015C84.1673 4.56643 65.8925 11.0689 50.4263 20.8378C34.9601 30.6066 22.6054 43.4505 14.0678 58.636C5.53012 73.8216 0.976624 91.0514 0.667285 109.342C0.357946 127.632 4.29882 146.625 12.2649 165.236C20.231 183.846 32.0662 201.71 47.095 217.808C62.1237 233.906 80.0516 247.922 99.855 259.056L164.868 143.419L229.881 27.7835Z"/>
</mask>
<path d="M229.881 27.7835C210.078 16.6495 188.787 8.61565 167.224 4.1405C145.661 -0.33465 124.248 -1.16342 104.207 1.7015C84.1673 4.56643 65.8925 11.0689 50.4263 20.8378C34.9601 30.6066 22.6054 43.4505 14.0678 58.636C5.53012 73.8216 0.976624 91.0514 0.667285 109.342C0.357946 127.632 4.29882 146.625 12.2649 165.236C20.231 183.846 32.0662 201.71 47.095 217.808C62.1237 233.906 80.0516 247.922 99.855 259.056L164.868 143.419L229.881 27.7835Z" fill="#C787AD" stroke="#8D346A" stroke-width="8" mask="url(#path-1-inside-1_1_46)"/>
</svg>
